<svg width="121" height="122" viewBox="0 0 121 122" fill="none" xmlns="http://www.w3.org/2000/svg">
<g filter="url(#filter0_d_48_236)">
<path d="M28.2795 70.9964C63.6778 105.028 122.938 144.243 76.794 28.8571C47.1321 36.1276 34.1004 44.6094 28.2795 70.9964Z" fill="#BC0606" stroke="black"/>
<path d="M38.6221 68.3003C38.8592 69.2361 37.992 69.3532 37.3619 70.4062C36.3025 69.7647 35.4803 70.059 35.2432 69.1232C35.0286 68.2759 35.8734 68.0702 36.5035 67.0173C37.5628 67.6588 38.3851 67.3644 38.6221 68.3003Z" fill="#FFF6A8"/>
<path d="M57.4945 69.0814C58.2021 69.7418 57.5441 70.3139 57.5938 71.5463C56.3622 71.583 55.8382 72.28 55.1306 71.6196C54.49 71.0217 55.081 70.3872 55.0313 69.1547C56.2629 69.1181 56.7869 68.421 57.4945 69.0814Z" fill="#FFF6A8"/>
<path d="M52.8988 80.0819C53.6064 80.7423 52.9485 81.3144 52.9981 82.5468C51.7666 82.5834 51.2426 83.2805 50.535 82.6201C49.8944 82.0222 50.4853 81.3877 50.4357 80.1552C51.6673 80.1186 52.1912 79.4215 52.8988 80.0819Z" fill="#FFF6A8"/>
<path d="M54.3483 59.1513C55.0559 59.8117 54.3979 60.3837 54.4476 61.6161C53.216 61.6528 52.692 62.3499 51.9844 61.6894C51.3438 61.0915 51.9348 60.457 51.8851 59.2246C53.1167 59.1879 53.6407 58.4908 54.3483 59.1513Z" fill="#FFF6A8"/>
<path d="M70.3837 58.2538C71.0913 58.9142 70.4333 59.4862 70.483 60.7187C69.2514 60.7553 68.7274 61.4524 68.0198 60.792C67.3792 60.1941 67.9702 59.5595 67.9205 58.3271C69.1521 58.2904 69.6761 57.5934 70.3837 58.2538Z" fill="#FFF6A8"/>
<path d="M63.1417 43.3065C63.8493 43.9669 63.1914 44.539 63.241 45.7714C62.0094 45.8081 61.4855 46.5051 60.7779 45.8447C60.1373 45.2468 60.7282 44.6123 60.6786 43.3798C61.9101 43.3432 62.4341 42.6461 63.1417 43.3065Z" fill="#FFF6A8"/>
<path d="M81.5145 54.788C82.2221 55.4484 81.5642 56.0204 81.6138 57.2528C80.3823 57.2895 79.8583 57.9866 79.1507 57.3262C78.5101 56.7283 79.101 56.0937 79.0514 54.8613C80.2829 54.8246 80.8069 54.1276 81.5145 54.788Z" fill="#FFF6A8"/>
<path d="M82.6322 65.9081C83.3398 66.5685 82.6818 67.1405 82.7315 68.373C81.4999 68.4096 80.976 69.1067 80.2684 68.4463C79.6277 67.8484 80.2187 67.2138 80.169 65.9814C81.4006 65.9447 81.9246 65.2477 82.6322 65.9081Z" fill="#FFF6A8"/>
<path d="M66.4182 84.0634C67.1258 84.7238 66.4678 85.2958 66.5175 86.5282C65.2859 86.5649 64.7619 87.262 64.0543 86.6015C63.4137 86.0037 64.0047 85.3691 63.955 84.1367C65.1866 84.1 65.7106 83.4029 66.4182 84.0634Z" fill="#FFF6A8"/>
<path d="M79.912 90.5106C80.6196 91.171 79.9616 91.7431 80.0113 92.9755C78.7797 93.0122 78.2557 93.7092 77.5481 93.0488C76.9075 92.4509 77.4985 91.8164 77.4488 90.5839C78.6804 90.5473 79.2044 89.8502 79.912 90.5106Z" fill="#FFF6A8"/>
<path d="M81.2593 79.4423C81.9669 80.1027 81.309 80.6747 81.3586 81.9071C80.1271 81.9438 79.6031 82.6409 78.8955 81.9805C78.2549 81.3826 78.8458 80.748 78.7962 79.5156C80.0278 79.4789 80.5517 78.7819 81.2593 79.4423Z" fill="#FFF6A8"/>
<path d="M40.4048 44.6814C32.6346 45.6327 17.6412 48.9567 16.1282 55.2023C14.215 63.0997 2.66793 67.1675 40.4048 44.6814Z" fill="#3E7B52"/>
<path d="M40.8932 44.6236C33.2821 45.4919 17.6736 48.8231 16.1282 55.2023C14.1965 63.1763 2.4432 67.246 41.5159 44.0201" stroke="black"/>
<path d="M42.1638 40.9514C40.9866 35.5838 42.4675 23.5732 52.8767 18.3659C65.8883 11.8567 56.0024 14.1155 42.1638 40.9514Z" fill="#3E7B52" stroke="black"/>
<path d="M40.9058 43.391C34.312 25.3748 18.9376 21.9707 33.7532 19.8147C48.5688 17.6587 41.5797 37.8569 40.9058 43.391C17.4371 47.8319 21.2109 40.5127 20.0805 30.6252C19.1762 22.7152 33.5872 35.8399 40.9058 43.391Z" fill="#3E7B52"/>
<path d="M40.9058 43.391C34.312 25.3748 18.9376 21.9707 33.7532 19.8147C48.5688 17.6587 41.5797 37.8569 40.9058 43.391ZM40.9058 43.391C33.5872 35.8399 19.1762 22.7152 20.0805 30.6252C21.2109 40.5127 17.4371 47.8319 40.9058 43.391Z" stroke="black"/>
</g>
<defs>
<filter id="filter0_d_48_236" x="8.47687" y="14.8003" width="89.7056" height="99.6631" filterUnits="userSpaceOnUse" color-interpolation-filters="sRGB">
<feFlood flood-opacity="0" result="BackgroundImageFix"/>
<feColorMatrix in="SourceAlpha" type="matrix" values="0 0 0 0 0 0 0 0 0 0 0 0 0 0 0 0 0 0 127 0" result="hardAlpha"/>
<feOffset dy="4"/>
<feGaussianBlur stdDeviation="2"/>
<feComposite in2="hardAlpha" operator="out"/>
<feColorMatrix type="matrix" values="0 0 0 0 0 0 0 0 0 0 0 0 0 0 0 0 0 0 0.25 0"/>
<feBlend mode="normal" in2="BackgroundImageFix" result="effect1_dropShadow_48_236"/>
<feBlend mode="normal" in="SourceGraphic" in2="effect1_dropShadow_48_236" result="shape"/>
</filter>
</defs>
</svg>
